[center]

[img]http://www.shotpix.com/images/71118521242716557701.jpeg[/img]


Plot: 
A soldier returns to her family, friends, and old job after a tour of duty, though she finds herself struggling to find her place in her everyday life. 

IMDB:  
http://www.imdb.com/title/tt1677082/

Information:
Format                           : Matroska
Format version                   : Version 2
File size                        : 1.20 GiB
Duration                         : 1h 37mn
Overall bit rate                 : 1 765 Kbps
Encoded date                     : UTC 2012-03-12 11:20:40
Writing application              : mkvmerge v5.3.0 ('I could have danced') built on Feb  9 2012 10:38:07
Writing library                  : libebml v1.2.3 + libmatroska v1.3.0

Video
ID                               : 1
Format                           : AVC
Format/Info                      : Advanced Video Codec
Format profile                   : High@L5.1
Format settings, CABAC           : Yes
Format settings, ReFrames        : 6 frames
Codec ID                         : V_MPEG4/ISO/AVC
Duration                         : 1h 37mn
Bit rate                         : 1 508 Kbps
Width                            : 720 pixels
Height                           : 480 pixels
Display aspect ratio             : 3:2
Frame rate                       : 29.970 fps
Standard                         : NTSC
Color space                      : YUV
Chroma subsampling               : 4:2:0
Bit depth                        : 8 bits
Scan type                        : Progressive
Bits/(Pixel*Frame)               : 0.146
Stream size                      : 1.00 GiB (84%)
Writing library                  : x264 core 122 r2183 c522ad1

Audio
ID                               : 2
Format                           : AC-3
Format/Info                      : Audio Coding 3
Mode extension                   : CM (complete main)
Codec ID                         : A_AC3
Duration                         : 1h 37mn
Bit rate mode                    : Constant
Bit rate                         : 256 Kbps
Channel(s)                       : 2 channels
Channel positions                : Front: L R
Sampling rate                    : 48.0 KHz
Bit depth                        : 16 bits
Compression mode                 : Lossy
Stream size                      : 178 MiB (15%)

Notes: 
A new VOD added my own touch to bring 
more life to video, Audio UNTOUCHED 

Source: 
Video - HK INC
Audio - HK INC
...Thanks 

Screene:


[img]http://www.shotpix.com/images/49071556505915303802.jpg[/img]
[img]http://www.shotpix.com/images/93825344630429849910.jpg[/img]
[img]http://www.shotpix.com/images/80458360673513539967.jpg[/img]
[img]http://www.shotpix.com/images/78373587340898924041.jpg[/img]
[img]http://www.shotpix.com/images/53867486348616410070.jpg[/img]
[img]http://www.shotpix.com/images/69937449647606976828.jpg[/img][/center]